<?xml version="1.0" standalone="no"?>
<!DOCTYPE svg PUBLIC "-//W3C//DTD SVG 20010904//EN"
 "http://www.w3.org/TR/2001/REC-SVG-20010904/DTD/svg10.dtd">
<svg version="1.0" xmlns="http://www.w3.org/2000/svg"
 width="612.000000pt" height="612.000000pt" viewBox="0 0 612.000000 612.000000"
 preserveAspectRatio="xMidYMid meet">
<metadata>
Created by potrace 1.11, written by Peter Selinger 2001-2013
</metadata>
<g transform="translate(0.000000,612.000000) scale(0.100000,-0.100000)"
fill="#000000" stroke="none">
<path d="M1666 6073 c-4 -4 -21 -8 -39 -9 -31 -2 -84 -10 -137 -20 -14 -3 -35
-6 -47 -7 -13 0 -23 -4 -23 -8 0 -4 -8 -6 -17 -4 -10 1 -23 -2 -30 -7 -7 -5
-17 -7 -23 -3 -5 3 -10 1 -10 -4 0 -6 -3 -10 -7 -10 -5 1 -10 0 -13 -1 -10 -3
-45 -11 -57 -12 -7 -1 -13 -4 -13 -8 0 -4 -7 -7 -15 -8 -8 -1 -22 -3 -30 -4
-8 -1 -15 -6 -15 -11 0 -6 -3 -7 -6 -4 -4 3 -16 1 -28 -5 -11 -7 -24 -11 -28
-10 -5 1 -8 -3 -8 -9 0 -5 -4 -8 -9 -4 -5 3 -12 1 -16 -5 -4 -6 -11 -8 -16 -5
-5 4 -9 1 -9 -5 0 -6 -4 -8 -10 -5 -5 3 -10 1 -10 -5 0 -6 -4 -8 -10 -5 -5 3
-10 1 -10 -5 0 -6 -4 -9 -9 -6 -5 3 -14 -1 -21 -10 -7 -8 -19 -13 -27 -10 -8
3 -12 2 -9 -3 3 -5 -5 -12 -19 -15 -14 -4 -25 -11 -25 -17 0 -6 -4 -7 -10 -4
-5 3 -10 1 -10 -5 0 -6 -5 -8 -10 -5 -6 3 -13 -1 -16 -9 -3 -9 -10 -13 -15
-10 -5 3 -9 0 -9 -6 0 -6 -4 -8 -10 -5 -5 3 -10 2 -10 -2 0 -5 -18 -19 -40
-33 -22 -14 -40 -29 -40 -34 0 -5 -3 -6 -6 -3 -4 4 -15 -3 -25 -15 -11 -11
-19 -18 -19 -15 0 3 -11 -4 -24 -16 -14 -12 -38 -34 -55 -49 -16 -16 -34 -28
-40 -28 -5 0 -13 -5 -17 -12 -5 -7 -3 -8 7 -3 12 8 12 6 0 -8 -7 -9 -19 -17
-27 -17 -7 0 -16 -5 -20 -12 -5 -7 -2 -8 7 -3 8 4 4 -2 -8 -14 -12 -11 -27
-21 -33 -21 -6 0 -8 -4 -5 -10 3 -5 -3 -15 -15 -22 -11 -7 -20 -16 -20 -20 0
-14 -38 -47 -45 -40 -4 4 -6 3 -5 -3 5 -21 0 -36 -10 -30 -5 3 -10 -1 -10 -9
0 -9 -4 -16 -10 -16 -5 0 -10 -7 -10 -16 0 -8 -4 -12 -10 -9 -5 3 -10 -3 -10
-15 0 -11 -7 -23 -15 -26 -8 -4 -15 -13 -15 -21 0 -8 -4 -11 -10 -8 -5 3 -7 0
-5 -8 3 -7 -5 -25 -19 -40 -14 -15 -22 -27 -18 -27 4 0 3 -4 -3 -8 -5 -4 -17
-16 -25 -26 -13 -18 -13 -19 0 -11 8 4 5 -3 -8 -17 -12 -13 -19 -28 -15 -31 3
-4 1 -7 -6 -7 -7 0 -9 -4 -6 -10 3 -5 1 -10 -6 -10 -7 0 -10 -3 -6 -6 3 -3 -5
-24 -19 -46 -14 -22 -20 -37 -14 -33 7 4 5 -4 -4 -18 -9 -13 -19 -35 -21 -48
-3 -13 -9 -25 -15 -27 -6 -2 -8 -8 -5 -13 3 -4 -1 -22 -10 -39 -8 -16 -12 -30
-8 -30 4 0 2 -5 -4 -11 -6 -6 -9 -18 -6 -25 3 -8 0 -14 -5 -14 -6 0 -11 -9
-11 -20 -1 -11 -1 -29 -2 -40 0 -11 -4 -20 -9 -20 -4 0 -7 -8 -5 -17 1 -10 0
-22 -3 -28 -4 -5 -8 -19 -9 -30 -2 -21 -9 -65 -20 -130 -10 -57 -10 -2779 0
-2845 4 -30 15 -86 23 -125 20 -95 20 -94 35 -145 7 -25 13 -49 15 -55 9 -37
51 -141 59 -147 5 -4 7 -8 2 -8 -4 0 6 -27 23 -60 17 -33 27 -60 23 -60 -5 0
-3 -4 2 -8 21 -14 85 -134 78 -145 -3 -7 -3 -9 1 -5 10 8 36 -14 29 -24 -2 -5
1 -8 7 -8 6 0 8 -4 5 -10 -3 -5 1 -10 10 -10 9 0 15 -5 13 -11 -2 -6 9 -25 24
-41 15 -17 25 -35 21 -41 -3 -6 -1 -7 5 -3 6 4 16 -4 23 -16 7 -13 18 -27 25
-31 8 -4 14 -15 14 -23 0 -8 4 -12 10 -9 5 3 10 -1 10 -10 0 -10 5 -13 12 -9
8 5 9 2 5 -9 -3 -9 -3 -16 1 -14 4 1 18 -6 32 -16 13 -9 21 -17 18 -17 -4 0 4
-12 17 -26 14 -15 25 -31 25 -35 0 -5 8 -9 18 -9 10 0 29 -13 42 -30 14 -16
30 -29 36 -30 6 0 18 -8 25 -17 12 -14 12 -16 0 -8 -10 5 -12 4 -7 -4 4 -6 11
-9 16 -6 5 3 26 -6 47 -20 37 -26 59 -45 36 -31 -7 4 -13 2 -13 -3 0 -6 11
-11 23 -11 26 0 62 -32 50 -44 -4 -4 0 -4 9 -1 11 5 26 -2 43 -19 34 -34 74
-60 81 -53 3 3 -4 8 -15 12 -12 3 -18 11 -15 17 4 6 2 8 -3 5 -6 -4 -17 1 -24
11 -13 15 -12 16 4 3 9 -7 17 -10 17 -5 0 4 9 -2 21 -15 12 -12 27 -20 35 -17
8 3 13 0 11 -6 -1 -7 3 -12 10 -13 6 0 15 -3 19 -8 4 -4 16 -7 26 -7 15 0 18
-5 13 -22 -7 -23 -7 -23 9 -3 l16 20 -7 -20 c-6 -18 -5 -18 10 -6 20 16 21 9
6 -22 -9 -20 -9 -20 9 2 14 18 21 21 27 11 6 -9 4 -11 -6 -5 -11 6 -12 5 -2
-5 10 -11 15 -11 28 0 11 9 15 9 15 1 0 -7 5 -9 12 -5 7 4 8 3 4 -5 -4 -6 -11
-9 -16 -6 -5 3 -11 1 -14 -3 -3 -5 4 -9 15 -8 11 0 23 7 28 14 7 11 9 11 14
-2 4 -9 12 -16 18 -16 7 0 18 -8 26 -18 8 -9 12 -12 10 -7 -3 6 6 11 19 11 13
1 24 -2 24 -8 0 -5 -4 -7 -9 -3 -5 3 -13 0 -17 -7 -4 -7 -4 -10 1 -6 4 4 13 4
20 -2 7 -6 20 -4 38 5 22 11 28 11 37 0 7 -8 9 -19 6 -24 -4 -5 -1 -13 5 -17
8 -4 9 -3 5 4 -4 7 -2 12 4 12 6 0 9 4 5 9 -3 5 -1 12 4 16 6 3 8 -3 6 -15 -5
-25 9 -34 25 -15 15 18 30 19 30 2 0 -7 13 -13 30 -13 17 -1 30 3 30 10 0 6 5
4 10 -4 9 -13 11 -13 20 0 6 10 10 11 10 3 0 -18 2926 -18 2949 0 9 7 12 8 8
1 -4 -7 2 -11 18 -11 14 0 22 4 18 10 -3 5 -1 7 5 3 5 -3 12 -3 15 1 2 5 2 2
1 -4 -4 -17 8 -17 25 -1 10 9 12 9 7 1 -4 -8 1 -11 14 -10 20 1 29 17 10 17
-5 0 -10 5 -10 10 0 6 8 5 19 -2 11 -7 17 -17 14 -23 -3 -5 0 -4 8 2 17 17 32
17 23 1 -5 -8 -1 -8 10 1 15 13 19 13 27 0 5 -8 9 -9 9 -4 0 6 -6 17 -12 24
-11 10 -10 12 2 9 8 -2 20 -10 26 -18 10 -12 11 -10 10 10 0 13 5 25 14 27 13
4 13 3 0 -6 -11 -8 -12 -11 -2 -11 7 0 10 -6 7 -12 -4 -7 0 -5 8 4 17 21 28
23 23 6 -1 -7 -1 -10 1 -5 3 4 9 4 15 1 7 -4 7 0 0 12 -8 16 -6 19 13 19 19 0
21 -3 12 -15 -10 -13 -10 -13 4 -3 10 9 19 9 26 2 6 -6 10 -5 10 5 0 8 -4 13
-9 10 -4 -3 -8 0 -8 5 0 6 17 11 37 11 34 0 36 1 17 15 -18 14 -18 14 2 9 12
-3 25 -1 28 5 9 14 26 14 26 1 0 -5 -5 -9 -11 -7 -6 1 -13 -4 -15 -11 -1 -7 0
-8 3 -2 3 7 10 7 21 -2 10 -8 13 -9 9 -1 -4 6 -1 13 5 16 11 3 10 7 0 19 -10
13 -9 15 10 14 13 0 26 -8 31 -16 5 -10 6 -6 4 11 -3 20 1 25 19 25 13 0 21
-3 18 -7 -2 -4 1 -11 7 -15 8 -4 9 -3 5 4 -4 7 -2 13 3 13 6 1 16 3 21 4 6 1
13 3 17 4 3 0 -2 10 -12 21 -10 11 -13 20 -7 20 7 0 12 -4 12 -10 0 -5 7 -7
15 -4 11 5 14 1 9 -12 -4 -14 -3 -15 4 -6 5 7 15 14 23 15 8 2 29 14 48 27 18
14 37 24 42 22 15 -4 10 6 -13 29 l-23 21 22 -11 c40 -20 86 -3 63 24 -11 13
-10 14 4 9 9 -3 16 -11 16 -17 0 -6 3 -7 7 -4 3 4 -2 17 -13 29 -14 16 -14 19
-2 10 14 -11 18 -10 29 10 7 13 12 28 10 33 -1 6 3 5 10 -2 9 -9 8 -15 -5 -28
-9 -9 -16 -22 -16 -28 0 -7 6 -4 14 5 8 11 16 14 22 8 11 -11 12 30 1 47 -4 7
-2 15 4 19 7 4 9 3 5 -4 -3 -6 -2 -13 4 -17 5 -3 10 -1 10 6 0 7 3 9 6 6 4 -4
1 -13 -5 -21 -9 -11 -9 -16 0 -22 7 -4 9 -3 5 4 -3 6 1 15 11 20 14 9 15 12 4
26 -12 14 -11 16 5 10 16 -6 17 -5 7 7 -7 7 -13 17 -13 23 0 5 7 1 15 -10 9
-11 15 -14 16 -6 1 6 2 18 3 25 1 6 10 11 19 10 12 0 16 4 13 14 -3 8 -1 11 5
8 5 -4 7 -15 4 -25 -3 -10 -1 -21 5 -25 6 -4 10 -3 9 2 -4 23 2 53 11 53 5 0
8 -6 6 -12 -1 -7 -1 -10 1 -5 3 4 9 5 14 2 5 -4 6 1 3 9 -5 14 28 41 38 31 9
-10 5 30 -5 43 -5 6 -7 13 -3 13 3 1 11 3 16 4 6 1 15 3 20 4 6 0 10 6 10 12
0 6 -7 8 -17 4 -14 -5 -15 -3 -6 6 16 16 35 1 27 -23 -5 -18 -4 -19 9 -7 11
10 12 19 5 32 -5 10 -8 20 -6 21 2 1 20 13 41 25 31 19 37 28 34 50 -2 14 -2
21 0 14 8 -22 33 -22 43 0 11 21 11 21 -4 3 -14 -17 -16 -17 -16 -3 0 15 22
33 45 37 6 1 9 8 7 17 -2 9 1 12 8 8 7 -4 4 8 -5 26 -13 28 -13 31 -1 15 20
-24 31 -15 16 13 -13 25 -7 27 14 5 15 -14 16 -12 16 18 1 31 1 32 15 14 8
-11 15 -16 15 -10 0 14 -13 30 -30 37 -10 4 -8 6 8 6 12 1 22 -4 22 -11 0 -17
10 -3 15 21 2 12 0 19 -5 16 -5 -3 -12 0 -16 6 -4 8 -3 9 4 5 7 -4 12 -2 12 5
0 8 4 8 15 -1 8 -7 12 -17 8 -23 -3 -6 -1 -7 6 -3 9 6 9 11 1 21 -14 16 -4 38
12 29 7 -5 8 -2 3 6 -5 7 -9 26 -10 41 -2 25 -1 26 12 14 20 -20 22 -19 15 8
-5 20 -4 21 14 7 17 -14 18 -14 6 2 -11 14 -10 18 5 28 13 8 14 10 2 7 -9 -3
-22 -1 -30 4 -10 6 -10 9 -1 9 6 0 11 4 10 9 -2 5 0 9 5 10 25 3 28 -1 11 -15
-18 -15 -18 -15 3 -4 12 5 25 15 29 22 4 6 3 8 -4 4 -6 -3 -13 -2 -17 4 -3 5
2 10 12 11 10 0 13 3 6 6 -7 2 -13 9 -13 14 0 6 5 7 12 3 7 -5 8 -3 4 5 -5 7
-15 10 -25 6 -12 -5 -13 -3 -5 5 9 9 17 9 32 1 15 -8 23 -8 28 1 4 6 3 8 -3 5
-6 -4 -18 2 -28 13 -13 15 -14 22 -5 37 10 16 10 15 4 -6 -4 -17 -3 -21 6 -16
8 5 11 4 7 -2 -3 -5 0 -10 8 -10 10 0 11 5 4 19 -5 10 -7 18 -3 18 3 0 1 6 -5
13 -8 10 -7 14 4 14 8 0 12 -3 10 -7 -2 -3 1 -12 6 -20 7 -11 8 -9 6 8 -2 13
-10 28 -18 34 -11 8 -11 9 2 5 12 -4 18 3 23 24 4 21 10 28 18 23 10 -6 10 -5
1 7 -10 13 -10 19 2 35 17 23 19 34 5 34 -5 0 -9 -3 -8 -7 1 -5 -4 -19 -12
-33 -7 -14 -13 -27 -13 -30 1 -3 0 -6 -1 -7 -1 -1 -2 11 -1 27 0 15 2 28 5 28
18 -1 21 4 9 19 -12 14 -12 16 0 8 11 -6 13 -4 7 10 -6 16 -4 16 11 4 10 -7
15 -10 11 -5 -4 5 -2 18 4 30 10 19 9 19 -4 8 -13 -10 -18 -10 -24 -1 -5 8 -3
9 6 4 10 -6 11 -1 6 21 -7 26 -6 27 6 10 13 -16 14 -13 13 32 -1 27 -6 55 -10
62 -5 9 -4 11 3 6 9 -5 12 367 12 1439 0 795 -4 1444 -8 1441 -5 -3 -9 1 -9 9
0 8 4 12 9 9 4 -3 8 -1 8 5 0 5 -4 12 -8 15 -11 6 -9 36 3 55 5 10 4 12 -4 7
-15 -9 -25 19 -16 42 13 27 14 43 4 36 -5 -3 -7 -10 -4 -15 4 -5 1 -9 -5 -9
-7 0 -9 8 -5 21 5 16 4 19 -5 14 -9 -6 -11 -4 -4 6 12 20 14 39 3 39 -5 0 -9
9 -9 21 0 13 -4 18 -12 13 -6 -4 -8 -3 -4 4 3 5 3 12 -1 15 -5 2 -2 2 5 1 6
-2 12 1 12 6 0 6 -8 10 -17 10 -15 0 -16 2 -3 10 13 8 13 11 -2 22 -15 11 -24
35 -27 73 -1 6 -6 3 -11 -5 -13 -20 -13 -4 0 20 7 13 7 21 -2 26 -7 5 -8 2 -3
-7 7 -12 5 -12 -6 -1 -12 11 -12 14 1 22 12 8 11 10 -5 10 -17 0 -17 2 -5 10
13 9 13 10 0 11 -8 1 -18 1 -21 1 -4 -1 -5 8 -2 18 3 11 0 20 -6 20 -6 0 -10
3 -10 8 3 19 -2 33 -11 27 -5 -3 -7 0 -4 8 3 8 -2 22 -11 31 -11 10 -12 16 -4
16 7 0 2 8 -9 19 -12 10 -22 24 -22 30 0 7 -5 9 -12 5 -8 -5 -7 0 2 11 9 11
10 16 3 11 -8 -4 -13 -2 -13 7 0 8 -10 22 -22 31 -13 9 -17 14 -10 11 6 -3 12
-2 12 3 0 6 -7 13 -16 16 -8 3 -12 10 -9 16 3 5 -1 10 -9 10 -9 0 -15 3 -15 8
3 20 -3 32 -17 32 -8 0 -13 4 -9 9 3 6 -3 14 -12 20 -13 8 -14 10 -4 11 11 0
9 4 -4 14 -11 8 -23 12 -27 10 -4 -3 -5 3 -1 12 4 11 3 15 -5 10 -6 -3 -13 3
-17 14 -4 11 -10 18 -15 15 -5 -3 -7 3 -5 14 2 14 -1 18 -11 14 -8 -3 -14 1
-14 9 0 16 -36 49 -44 41 -3 -4 -6 1 -6 9 0 9 -8 22 -17 29 -14 12 -16 12 -8
0 6 -10 4 -12 -4 -7 -7 5 -10 11 -7 14 8 8 -15 33 -24 27 -5 -3 -11 4 -15 15
-3 11 -10 20 -14 20 -5 0 -22 12 -39 28 -47 42 -62 53 -62 47 0 -3 -11 5 -24
19 -13 15 -28 26 -35 26 -6 0 -11 5 -11 11 0 5 -4 8 -9 5 -5 -3 -11 1 -15 9
-3 8 -12 15 -21 15 -8 0 -15 5 -15 10 0 6 -5 10 -11 10 -6 0 -30 13 -53 30
-24 16 -46 26 -50 23 -3 -4 -6 -1 -6 6 0 7 -4 9 -10 6 -5 -3 -10 -1 -10 4 0 6
-7 11 -16 11 -9 0 -23 8 -31 18 -8 10 -11 11 -7 2 6 -12 5 -13 -7 -4 -26 21
-91 55 -84 44 3 -5 -10 -1 -29 11 -20 12 -36 18 -36 14 0 -4 -6 -2 -13 4 -8 6
-17 8 -20 4 -4 -3 -7 -1 -7 6 0 7 -4 10 -9 6 -5 -3 -13 0 -16 6 -4 5 -13 8
-21 5 -8 -3 -14 -1 -14 4 0 5 -7 7 -15 4 -8 -4 -15 -1 -15 5 0 6 -3 10 -7 10
-5 -1 -11 0 -15 1 -5 1 -17 4 -28 5 -11 1 -21 3 -22 4 -2 2 -14 5 -28 8 -38 7
-55 11 -57 13 -2 2 -12 4 -23 5 -11 1 -21 3 -22 5 -2 1 -19 3 -38 5 -19 2 -53
7 -75 11 -51 10 -2820 16 -2829 7z m4269 -5094 c-4 -5 -12 -9 -18 -8 -9 0 -8
2 1 6 6 2 9 10 6 15 -4 7 -2 8 5 4 6 -4 9 -12 6 -17z m-125 -179 c0 -5 -8 -10
-17 -10 -15 0 -16 2 -3 10 19 12 20 12 20 0z m4 -28 c2 -4 -5 -9 -17 -9 -17
-2 -19 0 -7 7 18 12 18 12 24 2z m-100 -94 c-3 -5 -10 -6 -15 -3 -5 4 -9 1 -9
-6 0 -7 -3 -10 -6 -6 -9 9 3 24 20 24 8 0 13 -4 10 -9z m-129 -128 c-3 -5 1
-10 10 -10 10 0 13 5 9 12 -5 7 -3 8 5 3 18 -10 -3 -29 -24 -21 -14 5 -13 26
1 26 3 0 2 -4 -1 -10z m-4994 -37 c13 -16 12 -17 -3 -4 -17 13 -22 21 -14 21
2 0 10 -8 17 -17z m4710 -196 c-10 -9 -11 -8 -5 6 3 10 9 15 12 12 3 -3 0 -11
-7 -18z m33 -5 c3 -5 -1 -9 -9 -9 -8 0 -12 4 -9 9 3 4 7 8 9 8 2 0 6 -4 9 -8z
m-61 -36 c7 4 -4 -7 -23 -24 -19 -16 -37 -26 -39 -20 -2 6 -7 4 -12 -3 -6 -10
-9 -10 -9 -2 0 15 35 35 44 26 4 -4 10 4 13 17 4 14 8 19 11 12 2 -7 9 -9 15
-6z m-143 -76 c0 -5 -4 -10 -10 -10 -5 0 -10 5 -10 10 0 6 5 10 10 10 6 0 10
-4 10 -10z m-153 -46 c-3 -3 -12 -4 -19 -1 -8 3 -5 6 6 6 11 1 17 -2 13 -5z"/>
<path d="M6036 4861 c-3 -5 2 -15 12 -22 15 -12 16 -12 5 2 -7 9 -10 19 -6 22
3 4 4 7 0 7 -3 0 -8 -4 -11 -9z"/>
<path d="M6100 4599 c0 -5 5 -7 10 -4 6 3 10 8 10 11 0 2 -4 4 -10 4 -5 0 -10
-5 -10 -11z"/>
<path d="M5715 649 c-4 -5 -4 -13 -1 -16 3 -4 6 0 6 8 0 11 2 11 10 -1 6 -9
10 -10 10 -3 0 17 -17 25 -25 12z"/>
<path d="M5686 632 c-3 -6 -1 -14 5 -17 14 -9 20 -2 10 14 -6 8 -11 9 -15 3z"/>
<path d="M5626 568 c3 -4 9 -8 15 -8 5 0 9 4 9 8 0 5 -7 9 -15 9 -8 0 -12 -4
-9 -9z"/>
<path d="M5503 464 c3 -4 -1 -21 -9 -38 l-15 -31 19 22 c11 12 22 20 25 17 3
-3 3 3 0 15 -3 12 -10 21 -16 21 -6 0 -8 -3 -4 -6z"/>
<path d="M716 382 c-3 -5 1 -9 9 -9 8 0 12 4 9 9 -3 4 -7 8 -9 8 -2 0 -6 -4
-9 -8z"/>
<path d="M1030 190 c0 -5 5 -10 11 -10 5 0 7 5 4 10 -3 6 -8 10 -11 10 -2 0
-4 -4 -4 -10z"/>
<path d="M1056 163 c-6 -14 -5 -15 5 -6 7 7 10 15 7 18 -3 3 -9 -2 -12 -12z"/>
<path d="M5081 164 c0 -11 3 -14 6 -6 3 7 2 16 -1 19 -3 4 -6 -2 -5 -13z"/>
<path d="M5036 147 c3 -10 9 -15 12 -12 3 3 0 11 -7 18 -10 9 -11 8 -5 -6z"/>
<path d="M1227 109 c7 -9 10 -19 6 -23 -4 -4 1 -4 10 0 10 3 17 7 15 8 -2 1
-12 8 -23 16 -18 14 -19 13 -8 -1z"/>
<path d="M1365 64 c-19 -14 -19 -15 2 -11 26 4 38 13 26 20 -4 3 -17 -1 -28
-9z"/>
</g>
</svg>
