<?xml version="1.0" standalone="no"?>
<!DOCTYPE svg PUBLIC "-//W3C//DTD SVG 20010904//EN"
 "http://www.w3.org/TR/2001/REC-SVG-20010904/DTD/svg10.dtd">
<svg version="1.0" xmlns="http://www.w3.org/2000/svg"
 width="612.000000pt" height="612.000000pt" viewBox="0 0 612.000000 612.000000"
 preserveAspectRatio="xMidYMid meet">
<metadata>
Created by potrace 1.11, written by Peter Selinger 2001-2013
</metadata>
<g transform="translate(0.000000,612.000000) scale(0.100000,-0.100000)"
fill="#000000" stroke="none">
<path d="M1370 6063 c-25 -8 -72 -23 -105 -34 -33 -11 -67 -21 -75 -23 -28 -7
-184 -78 -240 -109 -286 -159 -555 -421 -711 -694 -97 -168 -174 -374 -214
-566 l-25 -122 1 -1460 c0 -803 4 -1480 9 -1505 4 -25 11 -62 14 -83 8 -52 50
-199 82 -289 54 -150 186 -384 280 -498 124 -149 284 -300 389 -366 17 -10 32
-21 35 -24 9 -10 110 -70 123 -73 7 -1 14 -5 17 -9 15 -19 189 -95 308 -134
l132 -44 1674 0 1673 0 79 26 c43 14 88 29 99 34 11 4 36 14 55 21 55 20 265
124 280 139 3 3 37 26 77 52 241 159 475 427 611 703 60 120 124 301 146 410
9 44 19 91 23 105 11 36 14 2977 4 3030 -5 25 -12 63 -15 85 -10 62 -33 145
-71 255 -126 362 -373 685 -690 903 -49 34 -101 68 -115 76 -53 29 -220 111
-227 111 -5 0 -19 6 -33 13 -14 8 -34 16 -45 19 -11 4 -67 20 -125 37 l-105
31 -1635 -1 c-1399 -1 -1642 -4 -1680 -16z"/>
</g>
</svg>
